<mxfile host="app.diagrams.net" agent="Mozilla/5.0 (Macintosh; Intel Mac OS X 10_15_7) AppleWebKit/605.1.15 (KHTML, like Gecko) Version/18.3.1 Safari/605.1.15" version="26.2.8">
  <diagram name="Page-1" id="W04zyf1lPujCVIqNp2oY">
    <mxGraphModel dx="1303" dy="627" grid="1" gridSize="10" guides="1" tooltips="1" connect="1" arrows="1" fold="1" page="1" pageScale="1" pageWidth="827" pageHeight="1169" math="0" shadow="0">
      <root>
        <mxCell id="0" />
        <mxCell id="1" parent="0" />
        <mxCell id="eEwVYgS2m5M2uQdrPHw_-7" value="dataReady" style="edgeStyle=orthogonalEdgeStyle;rounded=0;orthogonalLoop=1;jettySize=auto;html=1;entryX=0.5;entryY=0;entryDx=0;entryDy=0;" edge="1" parent="1" source="eEwVYgS2m5M2uQdrPHw_-1" target="eEwVYgS2m5M2uQdrPHw_-2">
          <mxGeometry relative="1" as="geometry">
            <Array as="points">
              <mxPoint x="390" y="150" />
              <mxPoint x="390" y="150" />
            </Array>
          </mxGeometry>
        </mxCell>
        <mxCell id="eEwVYgS2m5M2uQdrPHw_-1" value="Idle" style="rounded=1;whiteSpace=wrap;html=1;" vertex="1" parent="1">
          <mxGeometry x="330" y="80" width="120" height="50" as="geometry" />
        </mxCell>
        <mxCell id="eEwVYgS2m5M2uQdrPHw_-8" style="edgeStyle=orthogonalEdgeStyle;rounded=0;orthogonalLoop=1;jettySize=auto;html=1;" edge="1" parent="1" source="eEwVYgS2m5M2uQdrPHw_-2" target="eEwVYgS2m5M2uQdrPHw_-3">
          <mxGeometry relative="1" as="geometry" />
        </mxCell>
        <mxCell id="eEwVYgS2m5M2uQdrPHw_-17" value="errorIn" style="edgeStyle=orthogonalEdgeStyle;rounded=0;orthogonalLoop=1;jettySize=auto;html=1;" edge="1" parent="1" source="eEwVYgS2m5M2uQdrPHw_-2">
          <mxGeometry relative="1" as="geometry">
            <mxPoint x="630" y="210" as="targetPoint" />
          </mxGeometry>
        </mxCell>
        <mxCell id="eEwVYgS2m5M2uQdrPHw_-2" value="Requesting_buffer" style="rounded=1;whiteSpace=wrap;html=1;" vertex="1" parent="1">
          <mxGeometry x="330" y="180" width="120" height="60" as="geometry" />
        </mxCell>
        <mxCell id="eEwVYgS2m5M2uQdrPHw_-9" style="edgeStyle=orthogonalEdgeStyle;rounded=0;orthogonalLoop=1;jettySize=auto;html=1;" edge="1" parent="1" source="eEwVYgS2m5M2uQdrPHw_-3" target="eEwVYgS2m5M2uQdrPHw_-4">
          <mxGeometry relative="1" as="geometry" />
        </mxCell>
        <mxCell id="eEwVYgS2m5M2uQdrPHw_-16" value="errorIn" style="edgeStyle=orthogonalEdgeStyle;rounded=0;orthogonalLoop=1;jettySize=auto;html=1;" edge="1" parent="1" source="eEwVYgS2m5M2uQdrPHw_-3">
          <mxGeometry relative="1" as="geometry">
            <mxPoint x="630" y="300" as="targetPoint" />
            <Array as="points">
              <mxPoint x="540" y="300" />
              <mxPoint x="540" y="301" />
            </Array>
          </mxGeometry>
        </mxCell>
        <mxCell id="eEwVYgS2m5M2uQdrPHw_-3" value="Reading_buffer" style="rounded=1;whiteSpace=wrap;html=1;" vertex="1" parent="1">
          <mxGeometry x="330" y="270" width="120" height="60" as="geometry" />
        </mxCell>
        <mxCell id="eEwVYgS2m5M2uQdrPHw_-10" value="granted" style="edgeStyle=orthogonalEdgeStyle;rounded=0;orthogonalLoop=1;jettySize=auto;html=1;" edge="1" parent="1" source="eEwVYgS2m5M2uQdrPHw_-4" target="eEwVYgS2m5M2uQdrPHw_-5">
          <mxGeometry relative="1" as="geometry" />
        </mxCell>
        <mxCell id="eEwVYgS2m5M2uQdrPHw_-15" value="errorIN" style="edgeStyle=orthogonalEdgeStyle;rounded=0;orthogonalLoop=1;jettySize=auto;html=1;" edge="1" parent="1" source="eEwVYgS2m5M2uQdrPHw_-4">
          <mxGeometry relative="1" as="geometry">
            <mxPoint x="630" y="390" as="targetPoint" />
          </mxGeometry>
        </mxCell>
        <mxCell id="eEwVYgS2m5M2uQdrPHw_-4" value="Request bus arbitrer" style="rounded=1;whiteSpace=wrap;html=1;" vertex="1" parent="1">
          <mxGeometry x="330" y="360" width="120" height="60" as="geometry" />
        </mxCell>
        <mxCell id="eEwVYgS2m5M2uQdrPHw_-11" style="edgeStyle=orthogonalEdgeStyle;rounded=0;orthogonalLoop=1;jettySize=auto;html=1;" edge="1" parent="1" source="eEwVYgS2m5M2uQdrPHw_-5" target="eEwVYgS2m5M2uQdrPHw_-6">
          <mxGeometry relative="1" as="geometry" />
        </mxCell>
        <mxCell id="eEwVYgS2m5M2uQdrPHw_-14" value="errorIN" style="edgeStyle=orthogonalEdgeStyle;rounded=0;orthogonalLoop=1;jettySize=auto;html=1;strokeColor=default;" edge="1" parent="1" source="eEwVYgS2m5M2uQdrPHw_-5">
          <mxGeometry relative="1" as="geometry">
            <mxPoint x="630" y="480" as="targetPoint" />
          </mxGeometry>
        </mxCell>
        <mxCell id="eEwVYgS2m5M2uQdrPHw_-5" value="send handshake" style="rounded=1;whiteSpace=wrap;html=1;" vertex="1" parent="1">
          <mxGeometry x="330" y="450" width="120" height="60" as="geometry" />
        </mxCell>
        <mxCell id="eEwVYgS2m5M2uQdrPHw_-12" style="edgeStyle=orthogonalEdgeStyle;rounded=0;orthogonalLoop=1;jettySize=auto;html=1;entryX=0;entryY=0.5;entryDx=0;entryDy=0;" edge="1" parent="1" source="eEwVYgS2m5M2uQdrPHw_-6" target="eEwVYgS2m5M2uQdrPHw_-1">
          <mxGeometry relative="1" as="geometry">
            <mxPoint x="130" y="110" as="targetPoint" />
            <Array as="points">
              <mxPoint x="131" y="570" />
              <mxPoint x="131" y="105" />
            </Array>
          </mxGeometry>
        </mxCell>
        <mxCell id="eEwVYgS2m5M2uQdrPHw_-13" value="errorIN" style="edgeStyle=orthogonalEdgeStyle;rounded=0;orthogonalLoop=1;jettySize=auto;html=1;entryX=1;entryY=0.5;entryDx=0;entryDy=0;" edge="1" parent="1" source="eEwVYgS2m5M2uQdrPHw_-6" target="eEwVYgS2m5M2uQdrPHw_-1">
          <mxGeometry x="-0.7818" relative="1" as="geometry">
            <mxPoint x="640" y="110" as="targetPoint" />
            <Array as="points">
              <mxPoint x="630" y="570" />
              <mxPoint x="630" y="105" />
            </Array>
            <mxPoint as="offset" />
          </mxGeometry>
        </mxCell>
        <mxCell id="eEwVYgS2m5M2uQdrPHw_-6" value="send data" style="rounded=1;whiteSpace=wrap;html=1;" vertex="1" parent="1">
          <mxGeometry x="330" y="540" width="120" height="60" as="geometry" />
        </mxCell>
      </root>
    </mxGraphModel>
  </diagram>
</mxfile>
